<?xml version="1.0" standalone="no"?>
<!DOCTYPE svg PUBLIC "-//W3C//DTD SVG 20010904//EN"
 "http://www.w3.org/TR/2001/REC-SVG-20010904/DTD/svg10.dtd">
<svg version="1.0" xmlns="http://www.w3.org/2000/svg"
 width="512.000000pt" height="512.000000pt" viewBox="0 0 512.000000 512.000000"
 preserveAspectRatio="xMidYMid meet">

<g transform="translate(0.000000,512.000000) scale(0.100000,-0.100000)"
fill="#000000" stroke="none">
<path d="M2285 4990 c-688 -73 -1295 -435 -1674 -998 -514 -765 -520 -1776
-14 -2533 l76 -114 -153 -613 c-84 -337 -151 -615 -148 -617 2 -3 144 50 314
116 170 67 452 177 628 245 l318 124 93 -35 c112 -42 297 -89 431 -111 137
-22 437 -29 576 -15 1044 112 1871 895 2033 1926 23 142 30 425 16 570 -68
660 -399 1238 -936 1631 -284 208 -636 352 -1000 409 -118 18 -446 27 -560 15z
m420 -100 c270 -26 496 -88 740 -204 763 -365 1245 -1126 1245 -1970 0 -645
-285 -1261 -770 -1668 -402 -337 -896 -518 -1415 -518 -258 0 -510 45 -754
133 l-120 44 -123 -48 c-68 -26 -319 -124 -558 -218 -239 -93 -436 -169 -437
-168 -1 2 59 247 134 546 89 354 133 548 127 557 -217 304 -347 589 -408 894
-100 496 -31 1000 196 1442 133 260 352 528 578 709 437 350 1008 521 1565
469z"/>
<path d="M2251 4564 c-194 -27 -366 -78 -549 -165 -791 -375 -1216 -1244
-1026 -2098 63 -281 190 -547 367 -766 31 -38 57 -73 57 -77 0 -4 -43 -159
-95 -344 -53 -185 -94 -338 -92 -340 1 -2 163 60 360 137 l356 140 82 -42 c45
-22 134 -58 198 -79 391 -130 802 -130 1195 1 513 170 933 566 1139 1074 84
206 125 397 134 630 18 464 -126 895 -423 1261 -300 371 -758 621 -1236 673
-130 15 -339 12 -467 -5z m-217 -853 l38 -6 78 -205 c42 -113 89 -233 103
-267 15 -34 27 -78 27 -98 0 -38 -14 -56 -142 -191 -37 -40 -68 -76 -68 -81 0
-22 83 -143 175 -254 134 -163 315 -327 467 -426 73 -47 89 -51 109 -26 8 9
59 56 113 105 120 106 123 106 269 45 56 -24 174 -70 262 -102 88 -32 164 -61
169 -66 4 -4 12 -60 17 -126 l9 -118 -37 -53 c-50 -73 -159 -172 -229 -207
-57 -29 -64 -30 -184 -29 -136 1 -217 16 -364 65 -246 82 -515 254 -752 482
-360 346 -554 736 -558 1122 -1 116 0 122 31 185 39 79 105 156 189 219 l62
48 89 -5 c48 -2 105 -7 127 -11z"/>
</g>
</svg>
